<mxfile host="65bd71144e">
    <diagram id="6EFSTAop5vA4FJtw9Ohl" name="Page-1">
        <mxGraphModel dx="974" dy="517" grid="1" gridSize="10" guides="1" tooltips="1" connect="1" arrows="1" fold="1" page="1" pageScale="1" pageWidth="1169" pageHeight="827" math="0" shadow="0">
            <root>
                <mxCell id="0"/>
                <mxCell id="1" parent="0"/>
                <mxCell id="21" value="&lt;div style=&quot;color: rgb(229 , 229 , 229) ; background-color: rgb(23 , 26 , 39) ; font-family: &amp;#34;menlo&amp;#34; , &amp;#34;monaco&amp;#34; , &amp;#34;courier new&amp;#34; , monospace ; font-size: 12px ; line-height: 18px&quot;&gt;&lt;span style=&quot;color: #74d992&quot;&gt;LT&lt;/span&gt;&lt;/div&gt;" style="edgeStyle=none;html=1;exitX=0.75;exitY=1;exitDx=0;exitDy=0;entryX=0.75;entryY=0;entryDx=0;entryDy=0;" parent="1" source="2" target="3" edge="1">
                    <mxGeometry relative="1" as="geometry"/>
                </mxCell>
                <mxCell id="2" value="&lt;div style=&quot;color: rgb(229 , 229 , 229) ; background-color: rgb(23 , 26 , 39) ; font-family: &amp;#34;menlo&amp;#34; , &amp;#34;monaco&amp;#34; , &amp;#34;courier new&amp;#34; , monospace ; line-height: 18px&quot;&gt;&lt;span style=&quot;color: #74d992&quot;&gt;Text&lt;/span&gt;&lt;/div&gt;" style="rounded=1;whiteSpace=wrap;html=1;arcSize=50;" parent="1" vertex="1">
                    <mxGeometry x="195" y="150" width="120" height="40" as="geometry"/>
                </mxCell>
                <mxCell id="30" value="nameStarterChar" style="edgeStyle=none;curved=1;html=1;exitX=0.75;exitY=1;exitDx=0;exitDy=0;fontColor=#FFFFFF;strokeColor=#FFFFFF;entryX=0.75;entryY=0;entryDx=0;entryDy=0;" parent="1" source="3" target="5" edge="1">
                    <mxGeometry relative="1" as="geometry"/>
                </mxCell>
                <mxCell id="188" style="edgeStyle=none;curved=1;html=1;exitX=0.5;exitY=0;exitDx=0;exitDy=0;entryX=0.5;entryY=1;entryDx=0;entryDy=0;fontColor=#FFFFFF;strokeColor=#FFFFFF;" parent="1" source="3" target="2" edge="1">
                    <mxGeometry relative="1" as="geometry"/>
                </mxCell>
                <mxCell id="189" value="other&lt;br&gt;(back)" style="edgeLabel;html=1;align=center;verticalAlign=middle;resizable=0;points=[];fontColor=#FFFFFF;" parent="188" vertex="1" connectable="0">
                    <mxGeometry x="-0.2849" y="1" relative="1" as="geometry">
                        <mxPoint as="offset"/>
                    </mxGeometry>
                </mxCell>
                <mxCell id="214" style="edgeStyle=orthogonalEdgeStyle;html=1;exitX=0.5;exitY=1;exitDx=0;exitDy=0;" parent="1" source="3" target="213" edge="1">
                    <mxGeometry relative="1" as="geometry"/>
                </mxCell>
                <mxCell id="218" value="&lt;span style=&quot;color: rgb(116 , 217 , 146) ; font-family: &amp;#34;menlo&amp;#34; , &amp;#34;monaco&amp;#34; , &amp;#34;courier new&amp;#34; , monospace ; font-size: 12px ; background-color: rgb(23 , 26 , 39)&quot;&gt;SLASH&lt;/span&gt;" style="edgeLabel;html=1;align=center;verticalAlign=middle;resizable=0;points=[];" parent="214" vertex="1" connectable="0">
                    <mxGeometry x="-0.0529" y="-1" relative="1" as="geometry">
                        <mxPoint as="offset"/>
                    </mxGeometry>
                </mxCell>
                <mxCell id="3" value="&lt;div style=&quot;color: rgb(229 , 229 , 229) ; background-color: rgb(23 , 26 , 39) ; font-family: &amp;#34;menlo&amp;#34; , &amp;#34;monaco&amp;#34; , &amp;#34;courier new&amp;#34; , monospace ; line-height: 18px&quot;&gt;&lt;span style=&quot;color: #74d992&quot;&gt;Start&lt;/span&gt;&lt;/div&gt;" style="rounded=1;whiteSpace=wrap;html=1;arcSize=50;" parent="1" vertex="1">
                    <mxGeometry x="195" y="270" width="120" height="40" as="geometry"/>
                </mxCell>
                <mxCell id="80" style="edgeStyle=none;curved=1;html=1;exitX=0.5;exitY=1;exitDx=0;exitDy=0;entryX=0.5;entryY=0;entryDx=0;entryDy=0;fontColor=#FFFFFF;strokeColor=#FFFFFF;" parent="1" source="5" target="6" edge="1">
                    <mxGeometry relative="1" as="geometry"/>
                </mxCell>
                <mxCell id="81" value="&lt;span style=&quot;color: rgb(116 , 217 , 146) ; font-family: &amp;#34;menlo&amp;#34; , &amp;#34;monaco&amp;#34; , &amp;#34;courier new&amp;#34; , monospace ; font-size: 12px ; background-color: rgb(23 , 26 , 39)&quot;&gt;WS&lt;/span&gt;" style="edgeLabel;html=1;align=center;verticalAlign=middle;resizable=0;points=[];fontColor=#FFFFFF;" parent="80" vertex="1" connectable="0">
                    <mxGeometry x="-0.1662" y="-1" relative="1" as="geometry">
                        <mxPoint as="offset"/>
                    </mxGeometry>
                </mxCell>
                <mxCell id="190" style="edgeStyle=orthogonalEdgeStyle;html=1;fontColor=#FFFFFF;strokeColor=#FFFFFF;exitX=0;exitY=0.5;exitDx=0;exitDy=0;" parent="1" source="5" target="2" edge="1">
                    <mxGeometry relative="1" as="geometry">
                        <Array as="points">
                            <mxPoint x="80" y="490"/>
                            <mxPoint x="80" y="170"/>
                        </Array>
                        <mxPoint x="200" y="490" as="sourcePoint"/>
                    </mxGeometry>
                </mxCell>
                <mxCell id="191" value="other&lt;br&gt;(back)&lt;br&gt;&lt;br&gt;or&lt;br&gt;&lt;span style=&quot;color: rgb(116 , 217 , 146) ; font-family: &amp;#34;menlo&amp;#34; , &amp;#34;monaco&amp;#34; , &amp;#34;courier new&amp;#34; , monospace ; font-size: 12px&quot;&gt;GT&lt;br&gt;&lt;/span&gt;&lt;br&gt;or&lt;br&gt;unmanaged&lt;br&gt;element" style="edgeLabel;html=1;align=right;verticalAlign=middle;resizable=0;points=[];fontColor=#FFFFFF;labelBackgroundColor=none;" parent="190" vertex="1" connectable="0">
                    <mxGeometry x="-0.7667" y="-2" relative="1" as="geometry">
                        <mxPoint x="-61" y="-148" as="offset"/>
                    </mxGeometry>
                </mxCell>
                <mxCell id="5" value="&lt;div style=&quot;color: rgb(229 , 229 , 229) ; background-color: rgb(23 , 26 , 39) ; font-family: &amp;#34;menlo&amp;#34; , &amp;#34;monaco&amp;#34; , &amp;#34;courier new&amp;#34; , monospace ; line-height: 18px&quot;&gt;&lt;span style=&quot;color: #74d992&quot;&gt;Element&lt;/span&gt;&lt;/div&gt;" style="rounded=1;whiteSpace=wrap;html=1;arcSize=50;" parent="1" vertex="1">
                    <mxGeometry x="195" y="470" width="120" height="40" as="geometry"/>
                </mxCell>
                <mxCell id="99" style="edgeStyle=none;curved=1;html=1;exitX=1;exitY=0.5;exitDx=0;exitDy=0;entryX=0.25;entryY=1;entryDx=0;entryDy=0;fontColor=#FFFFFF;strokeColor=#FFFFFF;" parent="1" source="6" target="8" edge="1">
                    <mxGeometry relative="1" as="geometry">
                        <Array as="points">
                            <mxPoint x="700" y="650"/>
                        </Array>
                    </mxGeometry>
                </mxCell>
                <mxCell id="100" value="nameStarterChar" style="edgeLabel;html=1;align=center;verticalAlign=middle;resizable=0;points=[];fontColor=#FFFFFF;" parent="99" vertex="1" connectable="0">
                    <mxGeometry x="-0.7037" y="8" relative="1" as="geometry">
                        <mxPoint x="32" y="9" as="offset"/>
                    </mxGeometry>
                </mxCell>
                <mxCell id="174" style="edgeStyle=none;curved=1;html=1;exitX=0.25;exitY=1;exitDx=0;exitDy=0;fontColor=#FFFFFF;strokeColor=#FFFFFF;entryX=0.75;entryY=1;entryDx=0;entryDy=0;" parent="1" source="6" target="6" edge="1">
                    <mxGeometry relative="1" as="geometry">
                        <mxPoint x="315" y="709.6470588235293" as="targetPoint"/>
                        <Array as="points">
                            <mxPoint x="260" y="700"/>
                        </Array>
                    </mxGeometry>
                </mxCell>
                <mxCell id="175" value="&lt;span style=&quot;color: rgb(116 , 217 , 146) ; font-family: &amp;#34;menlo&amp;#34; , &amp;#34;monaco&amp;#34; , &amp;#34;courier new&amp;#34; , monospace ; font-size: 12px ; background-color: rgb(23 , 26 , 39)&quot;&gt;WS&lt;/span&gt;" style="edgeLabel;html=1;align=center;verticalAlign=middle;resizable=0;points=[];fontColor=#FFFFFF;" parent="174" vertex="1" connectable="0">
                    <mxGeometry x="0.213" y="12" relative="1" as="geometry">
                        <mxPoint x="-1" as="offset"/>
                    </mxGeometry>
                </mxCell>
                <mxCell id="6" value="&lt;div style=&quot;color: rgb(229 , 229 , 229) ; background-color: rgb(23 , 26 , 39) ; font-family: &amp;#34;menlo&amp;#34; , &amp;#34;monaco&amp;#34; , &amp;#34;courier new&amp;#34; , monospace ; line-height: 18px&quot;&gt;&lt;span style=&quot;color: #74d992&quot;&gt;Inside&lt;/span&gt;&lt;/div&gt;" style="rounded=1;whiteSpace=wrap;html=1;arcSize=50;" parent="1" vertex="1">
                    <mxGeometry x="195" y="590" width="120" height="40" as="geometry"/>
                </mxCell>
                <mxCell id="118" style="edgeStyle=orthogonalEdgeStyle;html=1;exitX=0.75;exitY=0;exitDx=0;exitDy=0;entryX=0.5;entryY=1;entryDx=0;entryDy=0;fontColor=#FFFFFF;strokeColor=#FFFFFF;" parent="1" source="8" target="10" edge="1">
                    <mxGeometry relative="1" as="geometry"/>
                </mxCell>
                <mxCell id="119" value="&lt;span style=&quot;color: rgb(116 , 217 , 146) ; font-family: &amp;#34;menlo&amp;#34; , &amp;#34;monaco&amp;#34; , &amp;#34;courier new&amp;#34; , monospace ; font-size: 12px ; background-color: rgb(23 , 26 , 39)&quot;&gt;EQUAL&lt;/span&gt;" style="edgeLabel;html=1;align=center;verticalAlign=middle;resizable=0;points=[];fontColor=#FFFFFF;" parent="118" vertex="1" connectable="0">
                    <mxGeometry x="-0.1277" y="1" relative="1" as="geometry">
                        <mxPoint y="36" as="offset"/>
                    </mxGeometry>
                </mxCell>
                <mxCell id="120" style="edgeStyle=orthogonalEdgeStyle;html=1;fontColor=#FFFFFF;strokeColor=#FFFFFF;entryX=1;entryY=0.5;entryDx=0;entryDy=0;exitX=0.5;exitY=0;exitDx=0;exitDy=0;" parent="1" source="8" target="9" edge="1">
                    <mxGeometry relative="1" as="geometry">
                        <mxPoint x="840" y="490" as="sourcePoint"/>
                    </mxGeometry>
                </mxCell>
                <mxCell id="121" value="&lt;span style=&quot;color: rgb(116 , 217 , 146) ; font-family: &amp;#34;menlo&amp;#34; , &amp;#34;monaco&amp;#34; , &amp;#34;courier new&amp;#34; , monospace ; font-size: 12px ; background-color: rgb(23 , 26 , 39)&quot;&gt;WS&lt;/span&gt;" style="edgeLabel;html=1;align=center;verticalAlign=middle;resizable=0;points=[];fontColor=#FFFFFF;" parent="120" vertex="1" connectable="0">
                    <mxGeometry x="0.1144" y="-2" relative="1" as="geometry">
                        <mxPoint x="-2" y="23" as="offset"/>
                    </mxGeometry>
                </mxCell>
                <mxCell id="8" value="&lt;div style=&quot;color: rgb(229 , 229 , 229) ; background-color: rgb(23 , 26 , 39) ; font-family: &amp;#34;menlo&amp;#34; , &amp;#34;monaco&amp;#34; , &amp;#34;courier new&amp;#34; , monospace ; line-height: 18px&quot;&gt;&lt;span style=&quot;color: #74d992&quot;&gt;Tag&lt;/span&gt;&lt;/div&gt;" style="rounded=1;whiteSpace=wrap;html=1;arcSize=50;" parent="1" vertex="1">
                    <mxGeometry x="780" y="480" width="120" height="40" as="geometry"/>
                </mxCell>
                <mxCell id="9" value="&lt;div style=&quot;color: rgb(229 , 229 , 229) ; background-color: rgb(23 , 26 , 39) ; font-family: &amp;#34;menlo&amp;#34; , &amp;#34;monaco&amp;#34; , &amp;#34;courier new&amp;#34; , monospace ; line-height: 18px&quot;&gt;&lt;span style=&quot;color: #74d992&quot;&gt;AfterTag&lt;/span&gt;&lt;/div&gt;" style="rounded=1;whiteSpace=wrap;html=1;arcSize=50;" parent="1" vertex="1">
                    <mxGeometry x="680" y="360" width="120" height="40" as="geometry"/>
                </mxCell>
                <mxCell id="140" style="edgeStyle=none;curved=1;html=1;exitX=0.25;exitY=0;exitDx=0;exitDy=0;fontColor=#FF8000;strokeColor=#FFFFFF;entryX=0.75;entryY=1;entryDx=0;entryDy=0;" parent="1" source="10" target="12" edge="1">
                    <mxGeometry relative="1" as="geometry"/>
                </mxCell>
                <mxCell id="141" value="&lt;span style=&quot;color: rgb(255 , 255 , 255)&quot;&gt;nameStarterChar&lt;/span&gt;" style="edgeLabel;html=1;align=center;verticalAlign=middle;resizable=0;points=[];fontColor=#FF8000;" parent="140" vertex="1" connectable="0">
                    <mxGeometry x="-0.0037" relative="1" as="geometry">
                        <mxPoint as="offset"/>
                    </mxGeometry>
                </mxCell>
                <mxCell id="203" style="edgeStyle=none;curved=1;html=1;exitX=0.75;exitY=1;exitDx=0;exitDy=0;entryX=0.75;entryY=0;entryDx=0;entryDy=0;fontColor=#FFFFFF;strokeColor=#FFFFFF;" parent="1" source="10" target="11" edge="1">
                    <mxGeometry relative="1" as="geometry">
                        <Array as="points">
                            <mxPoint x="990" y="490"/>
                        </Array>
                    </mxGeometry>
                </mxCell>
                <mxCell id="204" value="&lt;span style=&quot;color: rgb(116 , 217 , 146) ; font-family: &amp;#34;menlo&amp;#34; , &amp;#34;monaco&amp;#34; , &amp;#34;courier new&amp;#34; , monospace ; font-size: 12px ; background-color: rgb(23 , 26 , 39)&quot;&gt;QUOTE&lt;/span&gt;" style="edgeLabel;html=1;align=center;verticalAlign=middle;resizable=0;points=[];fontColor=#FFFFFF;" parent="203" vertex="1" connectable="0">
                    <mxGeometry x="-0.6684" y="-8" relative="1" as="geometry">
                        <mxPoint x="15" y="50" as="offset"/>
                    </mxGeometry>
                </mxCell>
                <mxCell id="10" value="&lt;div style=&quot;color: rgb(229 , 229 , 229) ; background-color: rgb(23 , 26 , 39) ; font-family: &amp;#34;menlo&amp;#34; , &amp;#34;monaco&amp;#34; , &amp;#34;courier new&amp;#34; , monospace ; line-height: 18px&quot;&gt;&lt;span style=&quot;color: #74d992&quot;&gt;AfterEqual&lt;/span&gt;&lt;/div&gt;" style="rounded=1;whiteSpace=wrap;html=1;arcSize=50;" parent="1" vertex="1">
                    <mxGeometry x="835" y="310" width="120" height="40" as="geometry"/>
                </mxCell>
                <mxCell id="211" style="html=1;exitX=0;exitY=0.75;exitDx=0;exitDy=0;entryX=1;entryY=0.5;entryDx=0;entryDy=0;curved=1;" parent="1" source="11" target="220" edge="1">
                    <mxGeometry relative="1" as="geometry"/>
                </mxCell>
                <mxCell id="212" value="&lt;span style=&quot;color: rgb(116 , 217 , 146) ; font-family: &amp;#34;menlo&amp;#34; , &amp;#34;monaco&amp;#34; , &amp;#34;courier new&amp;#34; , monospace ; font-size: 12px ; background-color: rgb(23 , 26 , 39)&quot;&gt;QUOTE&lt;/span&gt;" style="edgeLabel;html=1;align=center;verticalAlign=middle;resizable=0;points=[];" parent="211" vertex="1" connectable="0">
                    <mxGeometry x="-0.0879" y="-24" relative="1" as="geometry">
                        <mxPoint x="23" y="20" as="offset"/>
                    </mxGeometry>
                </mxCell>
                <mxCell id="11" value="&lt;div style=&quot;background-color: rgb(23 , 26 , 39) ; font-family: &amp;#34;menlo&amp;#34; , &amp;#34;monaco&amp;#34; , &amp;#34;courier new&amp;#34; , monospace ; line-height: 18px&quot;&gt;&lt;font color=&quot;#74d992&quot;&gt;Quote&lt;/font&gt;&lt;/div&gt;" style="rounded=1;whiteSpace=wrap;html=1;arcSize=50;" parent="1" vertex="1">
                    <mxGeometry x="800" y="610" width="120" height="40" as="geometry"/>
                </mxCell>
                <mxCell id="144" style="edgeStyle=none;curved=1;html=1;exitX=0.5;exitY=1;exitDx=0;exitDy=0;entryX=0.5;entryY=0;entryDx=0;entryDy=0;fontColor=#FF8000;strokeColor=#FFFFFF;" parent="1" source="12" target="14" edge="1">
                    <mxGeometry relative="1" as="geometry">
                        <Array as="points">
                            <mxPoint x="575" y="300"/>
                        </Array>
                    </mxGeometry>
                </mxCell>
                <mxCell id="145" value="&lt;span style=&quot;color: rgb(116 , 217 , 146) ; font-family: &amp;#34;menlo&amp;#34; , &amp;#34;monaco&amp;#34; , &amp;#34;courier new&amp;#34; , monospace ; font-size: 12px ; background-color: rgb(23 , 26 , 39)&quot;&gt;SLASH&lt;/span&gt;" style="edgeLabel;html=1;align=center;verticalAlign=middle;resizable=0;points=[];fontColor=#FF8000;" parent="144" vertex="1" connectable="0">
                    <mxGeometry x="-0.7541" y="1" relative="1" as="geometry">
                        <mxPoint as="offset"/>
                    </mxGeometry>
                </mxCell>
                <mxCell id="146" style="edgeStyle=none;curved=1;html=1;exitX=0;exitY=0.25;exitDx=0;exitDy=0;entryX=0.75;entryY=0;entryDx=0;entryDy=0;fontColor=#FF8000;strokeColor=#FFFFFF;" parent="1" source="12" target="2" edge="1">
                    <mxGeometry relative="1" as="geometry">
                        <mxPoint x="705" y="130" as="sourcePoint"/>
                        <mxPoint x="305" y="110" as="targetPoint"/>
                        <Array as="points">
                            <mxPoint x="515" y="80"/>
                        </Array>
                    </mxGeometry>
                </mxCell>
                <mxCell id="147" value="&lt;span style=&quot;color: rgb(255 , 255 , 255)&quot;&gt;other (back) or&amp;nbsp;&lt;/span&gt;&lt;span style=&quot;color: rgb(116 , 217 , 146) ; font-family: &amp;#34;menlo&amp;#34; , &amp;#34;monaco&amp;#34; , &amp;#34;courier new&amp;#34; , monospace ; font-size: 12px ; background-color: rgb(23 , 26 , 39)&quot;&gt;GT&lt;/span&gt;" style="edgeLabel;html=1;align=center;verticalAlign=middle;resizable=0;points=[];fontColor=#FF8000;" parent="146" vertex="1" connectable="0">
                    <mxGeometry x="-0.1372" y="1" relative="1" as="geometry">
                        <mxPoint x="-8" y="12" as="offset"/>
                    </mxGeometry>
                </mxCell>
                <mxCell id="152" style="edgeStyle=none;curved=1;html=1;exitX=0;exitY=0.75;exitDx=0;exitDy=0;entryX=0.75;entryY=0;entryDx=0;entryDy=0;fontColor=#FF8000;strokeColor=#FFFFFF;" parent="1" source="12" target="6" edge="1">
                    <mxGeometry relative="1" as="geometry"/>
                </mxCell>
                <mxCell id="153" value="&lt;span style=&quot;color: rgb(116 , 217 , 146) ; font-family: &amp;#34;menlo&amp;#34; , &amp;#34;monaco&amp;#34; , &amp;#34;courier new&amp;#34; , monospace ; font-size: 12px ; background-color: rgb(23 , 26 , 39)&quot;&gt;WS&lt;/span&gt;" style="edgeLabel;html=1;align=center;verticalAlign=middle;resizable=0;points=[];fontColor=#FF8000;" parent="152" vertex="1" connectable="0">
                    <mxGeometry x="-0.8959" y="1" relative="1" as="geometry">
                        <mxPoint as="offset"/>
                    </mxGeometry>
                </mxCell>
                <mxCell id="12" value="&lt;div style=&quot;background-color: rgb(23 , 26 , 39) ; font-family: &amp;#34;menlo&amp;#34; , &amp;#34;monaco&amp;#34; , &amp;#34;courier new&amp;#34; , monospace ; line-height: 18px&quot;&gt;&lt;span style=&quot;color: rgb(116 , 217 , 146)&quot;&gt;Value&lt;/span&gt;&lt;br&gt;&lt;/div&gt;" style="rounded=1;whiteSpace=wrap;html=1;arcSize=50;" parent="1" vertex="1">
                    <mxGeometry x="715" y="150" width="120" height="40" as="geometry"/>
                </mxCell>
                <mxCell id="78" style="edgeStyle=none;curved=1;html=1;exitX=0;exitY=0.75;exitDx=0;exitDy=0;entryX=0.5;entryY=1;entryDx=0;entryDy=0;fontColor=#FFFFFF;strokeColor=#FFFFFF;" parent="1" source="5" target="5" edge="1">
                    <mxGeometry relative="1" as="geometry">
                        <Array as="points">
                            <mxPoint x="190" y="580"/>
                        </Array>
                    </mxGeometry>
                </mxCell>
                <mxCell id="79" value="nameChar" style="edgeLabel;html=1;align=center;verticalAlign=middle;resizable=0;points=[];fontColor=#FFFFFF;" parent="78" vertex="1" connectable="0">
                    <mxGeometry x="-0.2436" y="-7" relative="1" as="geometry">
                        <mxPoint x="14" y="-7" as="offset"/>
                    </mxGeometry>
                </mxCell>
                <mxCell id="91" style="edgeStyle=none;curved=1;html=1;fontColor=#FFFFFF;strokeColor=#FFFFFF;exitX=0.5;exitY=0;exitDx=0;exitDy=0;entryX=0.75;entryY=1;entryDx=0;entryDy=0;" parent="1" source="6" target="2" edge="1">
                    <mxGeometry relative="1" as="geometry">
                        <mxPoint x="315" y="640" as="sourcePoint"/>
                        <mxPoint x="345" y="180" as="targetPoint"/>
                        <Array as="points">
                            <mxPoint x="410" y="450"/>
                        </Array>
                    </mxGeometry>
                </mxCell>
                <mxCell id="92" value="other&lt;br&gt;(back)&lt;br&gt;&lt;br&gt;or&amp;nbsp;&lt;br&gt;closing&lt;br&gt;not&lt;br&gt;respected&lt;br&gt;&lt;br&gt;or&lt;br&gt;&lt;span style=&quot;color: rgb(116 , 217 , 146) ; font-family: &amp;#34;menlo&amp;#34; , &amp;#34;monaco&amp;#34; , &amp;#34;courier new&amp;#34; , monospace ; font-size: 12px&quot;&gt;GT&lt;/span&gt;" style="edgeLabel;html=1;align=left;verticalAlign=middle;resizable=0;points=[];fontColor=#FFFFFF;labelBackgroundColor=none;" parent="91" vertex="1" connectable="0">
                    <mxGeometry x="-0.2633" y="31" relative="1" as="geometry">
                        <mxPoint x="-20" y="-54" as="offset"/>
                    </mxGeometry>
                </mxCell>
                <mxCell id="107" style="edgeStyle=none;curved=1;html=1;exitX=0.25;exitY=0;exitDx=0;exitDy=0;entryX=1;entryY=0.75;entryDx=0;entryDy=0;fontColor=#FFFFFF;strokeColor=#FFFFFF;" parent="1" source="14" target="2" edge="1">
                    <mxGeometry relative="1" as="geometry">
                        <Array as="points">
                            <mxPoint x="495" y="300"/>
                        </Array>
                    </mxGeometry>
                </mxCell>
                <mxCell id="108" value="other (back)&lt;br&gt;or&amp;nbsp;&lt;span style=&quot;color: rgb(116 , 217 , 146) ; font-family: &amp;#34;menlo&amp;#34; , &amp;#34;monaco&amp;#34; , &amp;#34;courier new&amp;#34; , monospace ; font-size: 12px ; background-color: rgb(23 , 26 , 39)&quot;&gt;GT&lt;/span&gt;" style="edgeLabel;html=1;align=center;verticalAlign=middle;resizable=0;points=[];fontColor=#FFFFFF;" parent="107" vertex="1" connectable="0">
                    <mxGeometry x="-0.1664" y="23" relative="1" as="geometry">
                        <mxPoint x="46" y="106" as="offset"/>
                    </mxGeometry>
                </mxCell>
                <mxCell id="14" value="&lt;div style=&quot;background-color: rgb(23 , 26 , 39) ; font-family: &amp;#34;menlo&amp;#34; , &amp;#34;monaco&amp;#34; , &amp;#34;courier new&amp;#34; , monospace ; line-height: 18px&quot;&gt;&lt;font color=&quot;#74d992&quot;&gt;Slash&lt;/font&gt;&lt;/div&gt;" style="rounded=1;whiteSpace=wrap;html=1;arcSize=50;" parent="1" vertex="1">
                    <mxGeometry x="515" y="480" width="120" height="40" as="geometry"/>
                </mxCell>
                <mxCell id="97" style="edgeStyle=none;curved=1;html=1;exitX=1;exitY=0.25;exitDx=0;exitDy=0;fontColor=#FFFFFF;strokeColor=#FFFFFF;entryX=0;entryY=0.5;entryDx=0;entryDy=0;" parent="1" source="6" target="14" edge="1">
                    <mxGeometry relative="1" as="geometry">
                        <mxPoint x="365" y="630" as="sourcePoint"/>
                        <mxPoint x="510" y="530" as="targetPoint"/>
                    </mxGeometry>
                </mxCell>
                <mxCell id="98" value="&lt;span style=&quot;color: rgb(116 , 217 , 146) ; font-family: &amp;#34;menlo&amp;#34; , &amp;#34;monaco&amp;#34; , &amp;#34;courier new&amp;#34; , monospace ; font-size: 12px ; background-color: rgb(23 , 26 , 39)&quot;&gt;SLASH&lt;/span&gt;" style="edgeLabel;html=1;align=center;verticalAlign=middle;resizable=0;points=[];fontColor=#FFFFFF;" parent="97" vertex="1" connectable="0">
                    <mxGeometry x="-0.0344" y="-2" relative="1" as="geometry">
                        <mxPoint as="offset"/>
                    </mxGeometry>
                </mxCell>
                <mxCell id="101" style="edgeStyle=none;curved=1;html=1;exitX=0.25;exitY=1;exitDx=0;exitDy=0;entryX=0.75;entryY=1;entryDx=0;entryDy=0;fontColor=#FFFFFF;strokeColor=#FFFFFF;" parent="1" source="8" target="8" edge="1">
                    <mxGeometry relative="1" as="geometry">
                        <Array as="points">
                            <mxPoint x="866" y="560"/>
                        </Array>
                    </mxGeometry>
                </mxCell>
                <mxCell id="102" value="nameChar" style="edgeLabel;html=1;align=center;verticalAlign=middle;resizable=0;points=[];fontColor=#FFFFFF;" parent="101" vertex="1" connectable="0">
                    <mxGeometry x="-0.3375" y="6" relative="1" as="geometry">
                        <mxPoint x="17" y="24" as="offset"/>
                    </mxGeometry>
                </mxCell>
                <mxCell id="105" style="edgeStyle=none;html=1;exitX=0.25;exitY=1;exitDx=0;exitDy=0;entryX=0.75;entryY=1;entryDx=0;entryDy=0;curved=1;strokeColor=#FF8000;" parent="1" source="14" target="14" edge="1">
                    <mxGeometry relative="1" as="geometry">
                        <mxPoint x="536.2" y="509.32000000000016" as="sourcePoint"/>
                        <mxPoint x="573.8" y="510" as="targetPoint"/>
                        <Array as="points">
                            <mxPoint x="575" y="580"/>
                        </Array>
                    </mxGeometry>
                </mxCell>
                <mxCell id="106" value="WS" style="edgeLabel;html=1;align=center;verticalAlign=middle;resizable=0;points=[];fontColor=#FF8000;" parent="105" vertex="1" connectable="0">
                    <mxGeometry x="-0.4226" y="-7" relative="1" as="geometry">
                        <mxPoint x="19" y="4" as="offset"/>
                    </mxGeometry>
                </mxCell>
                <mxCell id="116" style="edgeStyle=none;curved=1;html=1;fontColor=#FFFFFF;strokeColor=#FFFFFF;entryX=1;entryY=0.5;entryDx=0;entryDy=0;exitX=0;exitY=0.25;exitDx=0;exitDy=0;" parent="1" source="8" target="2" edge="1">
                    <mxGeometry relative="1" as="geometry">
                        <mxPoint x="650" y="460" as="sourcePoint"/>
                        <mxPoint x="415" y="160" as="targetPoint"/>
                        <Array as="points"/>
                    </mxGeometry>
                </mxCell>
                <mxCell id="207" value="&lt;span style=&quot;color: rgb(255 , 255 , 255)&quot;&gt;other (back)&lt;/span&gt;" style="edgeLabel;html=1;align=center;verticalAlign=middle;resizable=0;points=[];" parent="116" vertex="1" connectable="0">
                    <mxGeometry x="-0.7569" relative="1" as="geometry">
                        <mxPoint x="9" y="9" as="offset"/>
                    </mxGeometry>
                </mxCell>
                <mxCell id="122" style="edgeStyle=orthogonalEdgeStyle;html=1;exitX=0.5;exitY=0;exitDx=0;exitDy=0;entryX=0;entryY=0.5;entryDx=0;entryDy=0;fontColor=#FFFFFF;strokeColor=#FFFFFF;" parent="1" source="9" target="10" edge="1">
                    <mxGeometry relative="1" as="geometry">
                        <mxPoint x="805" y="480" as="sourcePoint"/>
                        <mxPoint x="925" y="360" as="targetPoint"/>
                    </mxGeometry>
                </mxCell>
                <mxCell id="123" value="&lt;span style=&quot;color: rgb(116 , 217 , 146) ; font-family: &amp;#34;menlo&amp;#34; , &amp;#34;monaco&amp;#34; , &amp;#34;courier new&amp;#34; , monospace ; font-size: 12px ; background-color: rgb(23 , 26 , 39)&quot;&gt;EQUAL&lt;/span&gt;" style="edgeLabel;html=1;align=center;verticalAlign=middle;resizable=0;points=[];fontColor=#FFFFFF;" parent="122" vertex="1" connectable="0">
                    <mxGeometry x="-0.1277" y="1" relative="1" as="geometry">
                        <mxPoint x="16" y="1" as="offset"/>
                    </mxGeometry>
                </mxCell>
                <mxCell id="138" style="edgeStyle=none;curved=1;html=1;exitX=0.25;exitY=0;exitDx=0;exitDy=0;entryX=0.75;entryY=0;entryDx=0;entryDy=0;fontColor=#FF8000;strokeColor=#FFFFFF;" parent="1" source="10" target="10" edge="1">
                    <mxGeometry relative="1" as="geometry">
                        <Array as="points">
                            <mxPoint x="895" y="260"/>
                        </Array>
                    </mxGeometry>
                </mxCell>
                <mxCell id="139" value="&lt;span style=&quot;color: rgb(116 , 217 , 146) ; font-family: &amp;#34;menlo&amp;#34; , &amp;#34;monaco&amp;#34; , &amp;#34;courier new&amp;#34; , monospace ; font-size: 12px ; background-color: rgb(23 , 26 , 39)&quot;&gt;WS&lt;/span&gt;" style="edgeLabel;html=1;align=center;verticalAlign=middle;resizable=0;points=[];fontColor=#FF8000;" parent="138" vertex="1" connectable="0">
                    <mxGeometry x="-0.2575" y="-12" relative="1" as="geometry">
                        <mxPoint x="14" y="-5" as="offset"/>
                    </mxGeometry>
                </mxCell>
                <mxCell id="148" style="edgeStyle=none;curved=1;html=1;exitX=0.25;exitY=0;exitDx=0;exitDy=0;entryX=0.75;entryY=0;entryDx=0;entryDy=0;fontColor=#FF8000;strokeColor=#FFFFFF;" parent="1" source="12" target="12" edge="1">
                    <mxGeometry relative="1" as="geometry">
                        <Array as="points">
                            <mxPoint x="775" y="120"/>
                        </Array>
                    </mxGeometry>
                </mxCell>
                <mxCell id="149" value="&lt;span style=&quot;color: rgb(255 , 255 , 255)&quot;&gt;nameChar&lt;/span&gt;" style="edgeLabel;html=1;align=center;verticalAlign=middle;resizable=0;points=[];fontColor=#FF8000;" parent="148" vertex="1" connectable="0">
                    <mxGeometry x="0.1507" y="-7" relative="1" as="geometry">
                        <mxPoint x="-2" y="-10" as="offset"/>
                    </mxGeometry>
                </mxCell>
                <mxCell id="172" style="edgeStyle=none;curved=1;html=1;exitX=0.25;exitY=1;exitDx=0;exitDy=0;entryX=0.75;entryY=1;entryDx=0;entryDy=0;fontColor=#FFFFFF;strokeColor=#FFFFFF;" parent="1" source="11" target="11" edge="1">
                    <mxGeometry relative="1" as="geometry">
                        <Array as="points">
                            <mxPoint x="880" y="710"/>
                        </Array>
                    </mxGeometry>
                </mxCell>
                <mxCell id="173" value="other" style="edgeLabel;html=1;align=center;verticalAlign=middle;resizable=0;points=[];fontColor=#FFFFFF;" parent="172" vertex="1" connectable="0">
                    <mxGeometry x="0.2224" y="11" relative="1" as="geometry">
                        <mxPoint x="-1" y="-11" as="offset"/>
                    </mxGeometry>
                </mxCell>
                <mxCell id="176" style="edgeStyle=none;curved=1;html=1;exitX=0.25;exitY=1;exitDx=0;exitDy=0;entryX=0.75;entryY=1;entryDx=0;entryDy=0;fontColor=#FFFFFF;strokeColor=#FFFFFF;" parent="1" source="9" target="9" edge="1">
                    <mxGeometry relative="1" as="geometry">
                        <Array as="points">
                            <mxPoint x="760" y="440"/>
                        </Array>
                    </mxGeometry>
                </mxCell>
                <mxCell id="177" value="&lt;span style=&quot;color: rgb(116 , 217 , 146) ; font-family: &amp;#34;menlo&amp;#34; , &amp;#34;monaco&amp;#34; , &amp;#34;courier new&amp;#34; , monospace ; font-size: 12px ; background-color: rgb(23 , 26 , 39)&quot;&gt;WS&lt;/span&gt;" style="edgeLabel;html=1;align=center;verticalAlign=middle;resizable=0;points=[];fontColor=#FFFFFF;" parent="176" vertex="1" connectable="0">
                    <mxGeometry x="0.4221" y="7" relative="1" as="geometry">
                        <mxPoint x="-12" y="2" as="offset"/>
                    </mxGeometry>
                </mxCell>
                <mxCell id="183" style="edgeStyle=none;curved=1;html=1;entryX=0.75;entryY=0;entryDx=0;entryDy=0;fontColor=#FFFFFF;strokeColor=#FFFFFF;exitX=0.25;exitY=0;exitDx=0;exitDy=0;" parent="1" source="2" target="2" edge="1">
                    <mxGeometry relative="1" as="geometry">
                        <Array as="points">
                            <mxPoint x="260" y="100"/>
                        </Array>
                        <mxPoint x="240" y="150" as="sourcePoint"/>
                    </mxGeometry>
                </mxCell>
                <mxCell id="184" value="other" style="edgeLabel;html=1;align=center;verticalAlign=middle;resizable=0;points=[];fontColor=#FFFFFF;" parent="183" vertex="1" connectable="0">
                    <mxGeometry x="0.3392" y="8" relative="1" as="geometry">
                        <mxPoint x="-20" y="-2" as="offset"/>
                    </mxGeometry>
                </mxCell>
                <mxCell id="186" value="" style="shape=singleArrow;direction=south;whiteSpace=wrap;html=1;labelBackgroundColor=none;strokeColor=none;strokeWidth=2;arrowWidth=0.3220223563058113;arrowSize=0.35532680693126883;fillColor=#008a00;fontColor=#ffffff;" parent="1" vertex="1">
                    <mxGeometry x="200" y="115" width="20" height="30" as="geometry"/>
                </mxCell>
                <mxCell id="187" value="" style="shape=flexArrow;endArrow=classic;html=1;strokeColor=#006EAF;fillColor=#1ba1e2;endWidth=11.2;endSize=5.824;width=6.4;exitX=0;exitY=0;exitDx=0;exitDy=0;" parent="1" source="2" edge="1">
                    <mxGeometry width="50" height="50" relative="1" as="geometry">
                        <mxPoint x="-155" y="239.99999999999977" as="sourcePoint"/>
                        <mxPoint x="155" y="130" as="targetPoint"/>
                    </mxGeometry>
                </mxCell>
                <mxCell id="193" style="edgeStyle=none;curved=1;html=1;exitX=0.25;exitY=0;exitDx=0;exitDy=0;fontColor=#FFFFFF;strokeColor=#FFFFFF;entryX=1;entryY=0.25;entryDx=0;entryDy=0;" parent="1" source="9" target="2" edge="1">
                    <mxGeometry relative="1" as="geometry">
                        <mxPoint x="690" y="340" as="sourcePoint"/>
                        <mxPoint x="280" y="130" as="targetPoint"/>
                        <Array as="points">
                            <mxPoint x="540" y="190"/>
                        </Array>
                    </mxGeometry>
                </mxCell>
                <mxCell id="195" value="other (back)" style="edgeLabel;html=1;align=center;verticalAlign=middle;resizable=0;points=[];fontColor=#FFFFFF;" parent="193" vertex="1" connectable="0">
                    <mxGeometry x="-0.786" relative="1" as="geometry">
                        <mxPoint x="6" y="6" as="offset"/>
                    </mxGeometry>
                </mxCell>
                <mxCell id="196" style="edgeStyle=none;curved=1;html=1;exitX=0;exitY=0;exitDx=0;exitDy=0;fontColor=#FFFFFF;strokeColor=#FFFFFF;entryX=1;entryY=0;entryDx=0;entryDy=0;" parent="1" source="10" target="2" edge="1">
                    <mxGeometry relative="1" as="geometry">
                        <mxPoint x="1005" y="480" as="sourcePoint"/>
                        <mxPoint x="355" y="160" as="targetPoint"/>
                        <Array as="points">
                            <mxPoint x="555" y="200"/>
                        </Array>
                    </mxGeometry>
                </mxCell>
                <mxCell id="198" value="other (back)" style="edgeLabel;html=1;align=center;verticalAlign=middle;resizable=0;points=[];fontColor=#FFFFFF;" parent="196" vertex="1" connectable="0">
                    <mxGeometry x="-0.786" relative="1" as="geometry">
                        <mxPoint x="-20" y="-8" as="offset"/>
                    </mxGeometry>
                </mxCell>
                <mxCell id="205" value="Transformation of &amp;lt;fusion ...&amp;gt; &amp;lt;/fusion&amp;gt; tags in fusion marks" style="text;html=1;strokeColor=none;fillColor=none;align=left;verticalAlign=middle;whiteSpace=wrap;rounded=0;fontSize=18;fontStyle=1" parent="1" vertex="1">
                    <mxGeometry x="40" y="40" width="370" height="30" as="geometry"/>
                </mxCell>
                <mxCell id="215" style="edgeStyle=orthogonalEdgeStyle;html=1;exitX=0.5;exitY=1;exitDx=0;exitDy=0;" parent="1" source="213" target="5" edge="1">
                    <mxGeometry relative="1" as="geometry"/>
                </mxCell>
                <mxCell id="219" value="&lt;span style=&quot;color: rgb(255 , 255 , 255)&quot;&gt;nameStarterChar&lt;/span&gt;" style="edgeLabel;html=1;align=center;verticalAlign=middle;resizable=0;points=[];" parent="215" vertex="1" connectable="0">
                    <mxGeometry x="-0.2081" y="-1" relative="1" as="geometry">
                        <mxPoint x="-20" y="14" as="offset"/>
                    </mxGeometry>
                </mxCell>
                <mxCell id="216" style="edgeStyle=orthogonalEdgeStyle;html=1;exitX=0.25;exitY=0;exitDx=0;exitDy=0;entryX=0.25;entryY=1;entryDx=0;entryDy=0;" parent="1" source="213" target="2" edge="1">
                    <mxGeometry relative="1" as="geometry">
                        <Array as="points">
                            <mxPoint x="130" y="230"/>
                            <mxPoint x="225" y="230"/>
                        </Array>
                    </mxGeometry>
                </mxCell>
                <mxCell id="217" value="&lt;span style=&quot;color: rgb(255 , 255 , 255)&quot;&gt;other&lt;/span&gt;&lt;br style=&quot;color: rgb(255 , 255 , 255)&quot;&gt;&lt;span style=&quot;color: rgb(255 , 255 , 255)&quot;&gt;(back)&lt;/span&gt;" style="edgeLabel;html=1;align=center;verticalAlign=middle;resizable=0;points=[];" parent="216" vertex="1" connectable="0">
                    <mxGeometry x="-0.5245" y="-1" relative="1" as="geometry">
                        <mxPoint as="offset"/>
                    </mxGeometry>
                </mxCell>
                <mxCell id="213" value="&lt;div style=&quot;color: rgb(229 , 229 , 229) ; background-color: rgb(23 , 26 , 39) ; font-family: &amp;#34;menlo&amp;#34; , &amp;#34;monaco&amp;#34; , &amp;#34;courier new&amp;#34; , monospace ; line-height: 18px&quot;&gt;&lt;span style=&quot;color: #74d992&quot;&gt;CloserElement&lt;/span&gt;&lt;/div&gt;" style="rounded=1;whiteSpace=wrap;html=1;arcSize=50;" parent="1" vertex="1">
                    <mxGeometry x="100" y="360" width="120" height="40" as="geometry"/>
                </mxCell>
                <mxCell id="221" style="edgeStyle=none;html=1;exitX=0;exitY=0.5;exitDx=0;exitDy=0;" edge="1" parent="1" source="220" target="6">
                    <mxGeometry relative="1" as="geometry"/>
                </mxCell>
                <mxCell id="222" value="&lt;span style=&quot;color: rgb(116 , 217 , 146) ; font-family: &amp;#34;menlo&amp;#34; , &amp;#34;monaco&amp;#34; , &amp;#34;courier new&amp;#34; , monospace ; font-size: 12px ; background-color: rgb(23 , 26 , 39)&quot;&gt;WS&lt;/span&gt;" style="edgeLabel;html=1;align=center;verticalAlign=middle;resizable=0;points=[];" vertex="1" connectable="0" parent="221">
                    <mxGeometry x="-0.194" relative="1" as="geometry">
                        <mxPoint as="offset"/>
                    </mxGeometry>
                </mxCell>
                <mxCell id="223" style="edgeStyle=none;html=1;exitX=0.75;exitY=0;exitDx=0;exitDy=0;entryX=1;entryY=0.75;entryDx=0;entryDy=0;exitPerimeter=0;curved=1;" edge="1" parent="1" source="220" target="14">
                    <mxGeometry relative="1" as="geometry">
                        <Array as="points">
                            <mxPoint x="720" y="560"/>
                        </Array>
                    </mxGeometry>
                </mxCell>
                <mxCell id="224" value="&lt;span style=&quot;color: rgb(116 , 217 , 146) ; font-family: &amp;#34;menlo&amp;#34; , &amp;#34;monaco&amp;#34; , &amp;#34;courier new&amp;#34; , monospace ; font-size: 12px ; background-color: rgb(23 , 26 , 39)&quot;&gt;SLASH&lt;/span&gt;" style="edgeLabel;html=1;align=center;verticalAlign=middle;resizable=0;points=[];" vertex="1" connectable="0" parent="223">
                    <mxGeometry x="-0.5898" y="-1" relative="1" as="geometry">
                        <mxPoint as="offset"/>
                    </mxGeometry>
                </mxCell>
                <mxCell id="225" style="edgeStyle=none;curved=1;html=1;exitX=0.25;exitY=0;exitDx=0;exitDy=0;entryX=0.944;entryY=0.938;entryDx=0;entryDy=0;entryPerimeter=0;" edge="1" parent="1" source="220" target="2">
                    <mxGeometry relative="1" as="geometry">
                        <Array as="points">
                            <mxPoint x="460" y="350"/>
                        </Array>
                    </mxGeometry>
                </mxCell>
                <mxCell id="226" value="&lt;span style=&quot;color: rgb(255 , 255 , 255)&quot;&gt;other (back) or&amp;nbsp;&lt;/span&gt;&lt;span style=&quot;color: rgb(116 , 217 , 146) ; font-family: &amp;#34;menlo&amp;#34; , &amp;#34;monaco&amp;#34; , &amp;#34;courier new&amp;#34; , monospace ; font-size: 12px ; background-color: rgb(23 , 26 , 39)&quot;&gt;GT&lt;/span&gt;" style="edgeLabel;html=1;align=center;verticalAlign=middle;resizable=0;points=[];" vertex="1" connectable="0" parent="225">
                    <mxGeometry x="-0.8796" y="-1" relative="1" as="geometry">
                        <mxPoint as="offset"/>
                    </mxGeometry>
                </mxCell>
                <mxCell id="220" value="&lt;div style=&quot;background-color: rgb(23 , 26 , 39) ; font-family: &amp;#34;menlo&amp;#34; , &amp;#34;monaco&amp;#34; , &amp;#34;courier new&amp;#34; , monospace ; line-height: 18px&quot;&gt;&lt;font color=&quot;#74d992&quot;&gt;AfterQuote&lt;/font&gt;&lt;/div&gt;" style="rounded=1;whiteSpace=wrap;html=1;arcSize=50;" vertex="1" parent="1">
                    <mxGeometry x="515" y="680" width="120" height="40" as="geometry"/>
                </mxCell>
            </root>
        </mxGraphModel>
    </diagram>
</mxfile>